<svg width="84" height="27" xmlns="http://www.w3.org/2000/svg"><path d="M8.852 19.42c-1.108 0-2.175-.128-3.202-.385a9.648 9.648 0 0 1-2.-1.578-.595-2.756-.595-1.249 0-2.202.224-2.861.673-.66.45-.99 1.135-.99 2.056H42.11c0-1.493.406-2.753 1.217-3.78.81-1.026 1.91-1.805 3.298-2.336 1.389-.53 2.958-.796 4.708-.796 1.633 0 3.144.248 4.532.744 1.389.496 2.506 1.24 3.352 2.231.845.992 1.268 2.252 1.268 3.78v8.032c0 .479.015.937.044 1.374.03.438.096.837.201 1.199.117.408.263.747.438 1.015.175.268.32.455.437.56h-5.337a3.723 3.723 0 0 1-.376-.508 3.962 3.962 0 0 1-.43-.892 7.195 7.195 0 0 1-.305-1.234 9.674 9.674 0 0 1-.097-1.461l1.12.77c-.326.77-.854 1.432-1.583 1.986-.73.554-1.593.98-2.59 1.278-.998.297-2.074.446-3.23.446Zm1.452-4.06a6.14 6.14 0 0 0 2.389-.464A4.104 4.104 0 0 0 54.43 13.4c.467-.665.7-1.534.7-2.608V8.92l1.348 1.313c-.77.28-1.66.51-2.669.69-1.01.182-2.015.324-3.019.43-1.19.116-2.08.317-2.668.603-.59.286-.884.767-.884 1.444 0 .642.25 1.123.752 1.444.502.32 1.249.481 2.24.481Zm13.742 11.323V.415h5.442v26.233h-5.442Zm11.182-7.228a7.325 7.325 0 0 1-4.042-1.181c-1.225-.788-2.205-1.85-2.94-3.185-.735-1.336-1.103-2.838-1.103-4.507v-.28l2.345-.052v.21c0 .863.21 1.619.63 2.266.42.648.963 1.146 1.628 1.496.665.35 1.359.526 2.082.526 1.19 0 2.226-.412 3.106-1.234.881-.823 1.322-2.109 1.322-3.859s-.438-3.025-1.313-3.824c-.875-.799-1.913-1.199-3.115-1.199-.723 0-1.417.173-2.082.517a4.308 4.308 0 0 0-1.628 1.461c-.42.63-.63 1.383-.63 2.257l-2.345-.14c0-1.68.368-3.164 1.103-4.453.735-1.29 1.715-2.307 2.94-3.054a7.619 7.619 0 0 1 4.042-1.12c1.505 0 2.911.37 4.218 1.111 1.306.741 2.365 1.823 3.176 3.247.81 1.423 1.216 3.155 1.216 5.197 0 2.135-.396 3.932-1.19 5.39-.793 1.458-1.843 2.558-3.15 3.299a8.51 8.51 0 0 1-4.27 1.111Z" fill="#151515"/></svg>